# xmcd
#
# Track frame offsets:
#	150
#	16652
#	32422
#	47032
#	63757
#	83880
#	100157
#	115977
#	131440
#	147692
#	164732
#	178975
#	193550
#	209125
#
# Disc length: 3056 seconds
#
# Revision: 2
# Processed by: cddbd v1.5.2PL0 Copyright (c) Steve Scherf et al.
# Submitted via: EZCDAudioConverter 8.0.2.1
#
DISCID=c90bee0e
DTITLE=Various (TOTP MAG) - Summer Anthems!
DYEAR=1998
DGENRE=Pop
TTITLE0=B*Witched - C'est La Vie (K-Klass Epic Klub Remix)
TTITLE1=Lutricia McNeal - Stranded
TTITLE2=Boyzone - She's The One
TTITLE3=Alexia - Uh La La La
TTITLE4=Another Level - Be Alone No More
TTITLE5=Tzant feat ODC MC - Sounds of Wickedness
TTITLE6=Solid Harmonie - I Want You To Want Me
TTITLE7=NYCC - Fight For Your Right To Party
TTITLE8=Hinda Hicks - You Think You Own Me
TTITLE9=Chumbawamba - Top of the World (Olé Olé Olé)
TTITLE10=Code Red - Come and Get It
TTITLE11=N-Tyce - Boom Boom
TTITLE12=Aaron Carter - Crush On You
TTITLE13=911 - I Believe I Can Fly (live)
EXTD=
EXTT0=
EXTT1=
EXTT2=
EXTT3=
EXTT4=
EXTT5=
EXTT6=
EXTT7=
EXTT8=
EXTT9=
EXTT10=
EXTT11=
EXTT12=
EXTT13=
PLAYORDER=
